<?xml version="1.0" standalone="no"?>
<!DOCTYPE svg PUBLIC "-//W3C//DTD SVG 20010904//EN"
 "http://www.w3.org/TR/2001/REC-SVG-20010904/DTD/svg10.dtd">
<svg version="1.0" xmlns="http://www.w3.org/2000/svg"
 width="300.000000pt" height="300.000000pt" viewBox="0 0 300.000000 300.000000"
 preserveAspectRatio="xMidYMid meet">
<metadata>
Created by potrace 1.10, written by Peter Selinger 2001-2011
</metadata>
<g transform="translate(0.000000,300.000000) scale(0.100000,-0.100000)"
fill="#000000" stroke="none">
<path d="M720 2695 c-6 -8 -16 -47 -21 -87 -5 -40 -16 -97 -24 -125 l-16 -53
-80 0 c-94 0 -118 -10 -178 -75 -99 -107 -161 -340 -161 -602 0 -98 1 -103 25
-119 15 -10 37 -14 55 -12 16 3 30 1 30 -4 0 -5 -57 -201 -126 -436 -69 -235
-145 -495 -170 -579 -46 -157 -51 -191 -34 -224 10 -18 28 -19 650 -19 634 0
640 0 680 -21 66 -35 160 -37 246 -5 l71 26 635 0 c602 0 636 1 651 18 10 10
17 29 17 42 0 13 -47 185 -105 381 -58 196 -105 359 -105 360 0 2 32 2 71 1
93 -5 116 2 139 41 29 46 25 70 -18 120 -22 25 -49 61 -62 82 l-23 37 28 57
c15 33 25 66 22 77 -4 10 -9 42 -13 69 -3 28 -8 52 -9 56 -2 3 -31 26 -64 52
-37 29 -62 43 -66 36 -4 -5 -5 -11 -4 -13 53 -38 129 -101 129 -107 0 -14
-464 -943 -475 -951 -5 -4 -11 -2 -13 5 -2 6 -28 32 -58 55 -50 40 -59 43 -97
39 -62 -8 -97 -18 -97 -29 0 -9 57 -2 95 12 16 6 36 -4 87 -43 59 -45 68 -57
79 -99 11 -48 34 -69 24 -23 -3 14 -7 36 -10 50 -4 17 -1 27 10 31 8 3 13 10
10 14 -3 4 2 13 10 20 8 7 15 17 15 22 0 17 107 228 112 222 3 -3 5 1 4 8 -2
19 286 598 297 598 16 0 -9 -125 -38 -196 -13 -31 -12 -34 34 -91 26 -32 46
-64 43 -71 -2 -8 -30 -12 -83 -12 l-79 0 -55 -112 c-30 -62 -55 -120 -55 -131
0 -10 9 -55 21 -100 21 -85 20 -116 -12 -230 l-10 -37 -94 0 c-66 0 -95 -4
-97 -12 -3 -7 -12 -13 -21 -13 -14 0 -172 -125 -165 -130 2 -1 26 1 53 4 40 5
45 8 26 13 -23 7 -22 9 30 50 82 65 90 68 188 68 l90 0 83 51 c46 28 84 52 84
52 1 1 -24 90 -56 197 -32 107 -55 199 -53 203 8 13 12 4 32 -64 10 -35 51
-174 91 -309 40 -135 75 -264 77 -287 l5 -42 -362 -1 c-215 0 -370 -4 -380
-10 -24 -13 -70 -9 -70 6 0 7 -8 11 -17 9 -10 -2 -124 -4 -253 -5 -129 -1
-224 -5 -210 -9 25 -7 25 -7 -8 -19 -18 -6 -30 -7 -27 -2 4 6 -1 10 -10 10 -9
0 -13 -5 -9 -11 4 -8 0 -9 -15 -4 -15 5 -21 2 -21 -9 0 -9 -4 -16 -10 -16 -5
0 -10 6 -10 13 0 9 -2 9 -9 -1 -8 -13 -54 -12 -67 1 -4 4 -12 7 -18 7 -6 0 -4
-5 4 -10 11 -8 7 -9 -15 -4 -48 12 -106 40 -97 49 4 4 -3 3 -15 -4 -14 -7 -24
-8 -28 -1 -4 6 -13 7 -23 1 -15 -8 -75 -7 -272 2 -25 2 -51 -2 -59 -8 -11 -8
-13 -7 -7 3 7 11 4 12 -12 3 -27 -14 -45 -14 -36 0 5 8 1 8 -14 0 -24 -13 -45
-15 -39 -3 3 4 -19 7 -48 7 -29 0 -51 -4 -48 -8 3 -5 -3 -5 -13 0 -19 9 -196
8 -402 -2 -57 -2 -101 -1 -98 3 3 4 -6 8 -19 8 -13 0 -21 -4 -19 -8 3 -4 1 -8
-5 -8 -5 0 -12 4 -15 9 -3 5 -22 7 -43 5 -37 -3 -63 9 -63 30 0 8 173 11 647
10 632 -1 649 -1 690 -22 57 -27 156 -24 236 6 55 21 71 22 283 20 123 -2 224
0 224 5 0 4 -106 7 -236 7 -220 0 -238 -1 -282 -22 -74 -34 -136 -35 -213 -4
l-66 26 -631 0 c-348 0 -632 2 -632 5 0 3 40 142 89 308 49 166 119 406 156
532 l67 231 34 -4 c19 -2 34 -6 34 -9 0 -3 -9 -35 -19 -71 -31 -109 -72 -260
-76 -284 -17 -87 -29 -127 -38 -121 -6 3 -7 1 -3 -5 3 -6 -5 -60 -19 -119
l-26 -108 23 -100 23 -100 84 -3 c62 -2 91 -8 110 -21 25 -18 28 -18 113 0 77
17 125 19 395 16 l308 -2 3 -62 3 -61 74 -27 c85 -31 123 -30 208 5 l52 22 -3
43 c-2 23 1 52 7 64 11 20 18 21 232 21 l220 0 -5 -30 c-4 -25 1 -35 28 -56
l32 -26 -19 -39 c-11 -22 -17 -43 -14 -46 4 -3 15 14 26 39 15 36 24 44 42 43
34 -2 35 -24 3 -52 -22 -18 -23 -21 -7 -13 12 5 25 15 28 20 4 6 15 8 26 5 25
-8 638 -9 646 -1 4 3 -140 6 -319 6 -254 0 -326 3 -325 12 1 44 -3 48 -45 48
-64 1 -82 19 -76 78 l5 49 -111 14 c-165 21 -272 18 -321 -8 -22 -11 -50 -35
-63 -52 -22 -30 -97 -61 -148 -61 -34 0 -127 37 -152 60 -21 19 -37 20 -519
23 l-497 2 -22 90 -23 90 89 355 c49 195 100 397 114 448 l24 92 -104 0 -104
0 0 83 c1 236 67 461 162 554 38 38 40 38 135 43 l96 5 18 35 c18 34 42 124
54 203 l6 37 319 0 320 0 6 -26 c10 -38 -4 -219 -21 -283 -8 -30 -21 -61 -29
-70 -14 -13 -19 -13 -48 9 -31 23 -113 46 -102 29 3 -5 1 -9 -5 -9 -5 0 -13
-9 -16 -20 -4 -11 -11 -18 -16 -15 -5 3 -6 -2 -2 -11 4 -12 3 -15 -5 -10 -8 5
-10 1 -5 -10 5 -13 3 -15 -7 -9 -8 5 -11 4 -7 -2 4 -6 2 -38 -5 -73 -6 -34
-14 -57 -18 -50 -13 21 -23 -77 -33 -340 l-2 -45 -155 1 c-85 0 -204 1 -263 2
l-109 2 4 65 c1 36 0 65 -4 65 -5 0 -8 -27 -8 -59 0 -33 -2 -66 -5 -74 -5 -12
37 -15 270 -21 153 -4 279 -5 282 -3 2 3 6 61 9 129 2 67 7 150 10 183 l5 60
170 -3 c165 -3 170 -4 179 -25 8 -20 9 -19 9 10 1 46 49 97 106 113 42 12 83
10 163 -6 32 -6 32 -6 26 27 -9 46 -54 160 -71 180 -32 38 -27 39 395 39 l408
0 51 -52 c87 -89 96 -118 104 -363 4 -115 7 -211 8 -213 1 -2 53 9 58 12 0 1
-2 98 -6 216 -8 214 -8 216 -39 281 -23 47 -51 84 -97 128 l-66 61 -512 2
-512 3 -5 98 c-8 148 24 137 -410 137 -301 0 -359 -2 -370 -15z m320 -17 c0
-5 -61 -8 -135 -7 -94 1 -140 -3 -150 -11 -12 -10 -15 -9 -15 3 0 9 10 17 23
19 51 7 277 4 277 -4z m416 -10 c13 -13 18 -38 20 -104 2 -61 8 -92 18 -102
15 -16 245 -22 711 -21 105 1 201 0 214 0 35 -1 40 -11 5 -11 -16 0 -184 -2
-373 -4 -319 -3 -345 -4 -358 -21 -11 -16 -10 -24 7 -53 12 -19 19 -37 16 -39
-3 -3 2 -12 10 -20 8 -8 12 -18 9 -23 -3 -5 -1 -11 5 -15 5 -3 10 -17 10 -30
0 -13 5 -27 10 -30 6 -3 10 -11 10 -16 0 -6 -4 -8 -9 -4 -21 13 -134 15 -174
3 -24 -7 -60 -30 -84 -55 -24 -23 -43 -36 -43 -30 0 8 -3 8 -8 2 -7 -10 -302
-15 -302 -5 4 47 55 189 69 191 3 0 15 2 26 4 11 2 34 -5 52 -16 18 -11 43
-19 55 -17 34 5 67 79 78 179 21 172 21 178 5 209 l-16 30 -184 0 c-102 0
-185 4 -185 9 0 5 88 8 195 7 168 -1 197 -3 211 -18z m-721 -95 c-7 -56 -29
-133 -44 -162 -10 -17 -23 -20 -106 -23 -52 -2 -95 0 -95 5 0 5 132 13 162 8
18 -2 50 65 65 138 19 89 29 108 18 34z m1790 -142 c3 -6 -4 -8 -16 -6 -30 6
-37 15 -11 15 11 0 23 -4 27 -9z m89 -73 c24 -29 32 -48 22 -48 -2 0 -18 19
-35 42 -17 23 -31 38 -31 34 0 -5 -7 -3 -15 4 -8 7 -15 17 -15 21 0 14 45 -18
74 -53z m-2134 18 c0 -3 -4 -8 -10 -11 -5 -3 -10 -1 -10 4 0 6 5 11 10 11 6 0
10 -2 10 -4z m-30 -26 c0 -5 -5 -10 -11 -10 -5 0 -7 5 -4 10 3 6 8 10 11 10 2
0 4 -4 4 -10z m-30 -35 c-7 -9 -15 -13 -17 -11 -7 7 7 26 19 26 6 0 6 -6 -2
-15z m2248 -60 c-3 -3 -9 2 -12 12 -6 14 -5 15 5 6 7 -7 10 -15 7 -18z m-2303
-21 c-8 -16 -15 -23 -15 -16 0 13 22 53 27 48 2 -2 -3 -16 -12 -32z m2323 -29
c-3 -3 -9 2 -12 12 -6 14 -5 15 5 6 7 -7 10 -15 7 -18z m-2351 -47 c-3 -8 -6
-5 -6 6 -1 11 2 17 5 13 3 -3 4 -12 1 -19z m-15 -40 c-7 -7 -12 -8 -12 -2 0
14 12 26 19 19 2 -3 -1 -11 -7 -17z m2375 -20 c-3 -7 -5 -2 -5 12 0 14 2 19 5
13 2 -7 2 -19 0 -25z m0 -50 c-3 -7 -5 -2 -5 12 0 14 2 19 5 13 2 -7 2 -19 0
-25z m0 -50 c-3 -7 -5 -2 -5 12 0 14 2 19 5 13 2 -7 2 -19 0 -25z m0 -50 c-3
-7 -5 -2 -5 12 0 14 2 19 5 13 2 -7 2 -19 0 -25z m-2407 -39 c0 -22 -4 -38 -8
-35 -8 5 -4 76 4 76 2 0 4 -18 4 -41z m2407 -11 c-3 -7 -5 -2 -5 12 0 14 2 19
5 13 2 -7 2 -19 0 -25z m9 -61 c2 -30 0 -37 -6 -22 -11 26 -12 65 -2 65 4 0 8
-19 8 -43z m-2429 -84 c-2 -16 -4 -5 -4 22 0 28 2 40 4 28 2 -13 2 -35 0 -50z
m5 -54 c2 -14 15 -25 41 -34 20 -7 37 -10 37 -6 0 3 25 7 55 8 61 3 59 7 39
-82 -12 -56 -67 -76 -78 -29 -5 19 -2 30 11 40 17 13 17 13 1 14 -10 0 -18 7
-18 15 0 13 -10 17 -76 31 -15 2 -23 13 -26 34 -3 16 -1 30 3 30 4 0 9 -9 11
-21z m2627 -374 c0 -5 -6 -1 -14 9 -8 11 -15 24 -15 30 0 5 7 1 15 -10 8 -10
14 -23 14 -29z m41 -47 c0 -12 -6 -9 -26 13 -19 22 -19 22 4 8 12 -8 22 -17
22 -21z m1 -52 c-6 -14 -14 -26 -18 -27 -5 0 -34 -2 -65 -5 -32 -3 -65 -1 -75
5 -14 8 1 10 60 11 73 0 78 1 89 25 15 33 22 26 9 -9z m-221 -243 c7 -23 10
-49 7 -57 -4 -9 -1 -16 6 -16 13 0 67 -177 60 -197 -5 -12 -113 -87 -119 -81
-1 2 4 35 12 73 21 97 23 118 13 136 -8 15 -17 63 -23 115 -1 11 -5 25 -9 31
-4 6 1 26 10 44 18 37 18 37 43 -48z m-762 -350 c122 -12 74 -24 -93 -23 -164
2 -192 9 -110 29 38 9 63 9 203 -6z m-463 -117 c45 0 81 6 103 17 l32 18 0
-35 c0 -31 -4 -35 -49 -55 -61 -26 -139 -27 -201 -2 -36 15 -46 24 -48 46 -6
50 2 56 50 32 33 -17 60 -22 113 -21z"/>
<path d="M1111 2618 c0 -9 -4 -25 -7 -35 -5 -17 -5 -17 6 0 6 10 9 25 7 35 -4
15 -5 15 -6 0z"/>
<path d="M1137 2604 c-2 -14 0 -23 6 -21 13 4 18 35 7 42 -4 3 -10 -7 -13 -21z"/>
<path d="M1132 2550 c0 -14 2 -19 5 -12 2 6 2 18 0 25 -3 6 -5 1 -5 -13z"/>
<path d="M1090 2524 c-12 -31 -12 -34 -1 -34 5 0 11 14 13 30 6 37 1 38 -12 4z"/>
<path d="M1116 2503 c-6 -14 -5 -15 5 -6 7 7 10 15 7 18 -3 3 -9 -2 -12 -12z"/>
<path d="M828 2503 c7 -3 16 -2 19 1 4 3 -2 6 -13 5 -11 0 -14 -3 -6 -6z"/>
<path d="M898 2503 c7 -3 16 -2 19 1 4 3 -2 6 -13 5 -11 0 -14 -3 -6 -6z"/>
<path d="M1381 2465 c-4 -50 -10 -99 -16 -122 -3 -13 -5 -26 -4 -29 0 -4 -5
-11 -13 -16 -10 -8 -10 -9 2 -5 19 5 41 98 37 157 -2 30 -4 35 -6 15z"/>
<path d="M852 2463 c37 -2 100 -2 140 0 40 1 10 3 -67 3 -77 0 -110 -1 -73 -3z"/>
<path d="M1078 2463 c7 -3 16 -2 19 1 4 3 -2 6 -13 5 -11 0 -14 -3 -6 -6z"/>
<path d="M730 2380 c-14 -5 84 -8 216 -9 188 -1 251 -4 284 -16 54 -19 63 -14
13 8 -30 13 -85 17 -263 20 -124 2 -236 1 -250 -3z"/>
<path d="M1811 2160 c-1 -23 6 -27 92 -54 50 -16 119 -35 152 -42 80 -17 251
-29 258 -18 3 5 -36 10 -87 11 -103 2 -157 12 -303 55 -83 25 -103 35 -106 52
-4 18 -4 17 -6 -4z"/>
<path d="M1817 2086 c8 -40 13 -46 13 -13 l0 26 43 -15 c23 -8 49 -17 57 -21
8 -3 20 -7 25 -8 6 -2 38 -10 73 -19 35 -9 82 -15 105 -14 40 1 40 1 7 5 -54
6 -193 41 -265 67 l-64 23 6 -31z"/>
<path d="M738 2083 c67 -2 177 -2 245 0 67 1 12 3 -123 3 -135 0 -190 -2 -122
-3z"/>
<path d="M580 2040 c-11 -22 -17 -40 -13 -40 5 0 16 18 25 40 21 52 14 52 -12
0z"/>
<path d="M1625 2073 c-11 -3 -26 -10 -33 -16 -22 -18 2 -27 43 -16 28 8 49 8
78 -1 42 -12 53 -9 44 13 -8 22 -80 33 -132 20z"/>
<path d="M611 2034 c-6 -15 -9 -29 -6 -32 3 -3 5 0 5 6 0 6 7 17 15 25 12 12
48 16 182 17 92 0 169 3 172 5 2 3 -77 5 -176 5 l-180 0 -12 -26z"/>
<path d="M991 2056 c7 -8 98 -10 105 -3 4 4 -19 7 -51 7 -32 0 -56 -2 -54 -4z"/>
<path d="M2330 2053 c0 -5 21 -8 47 -8 l47 0 17 -80 c9 -44 17 -73 18 -64 2
26 -21 133 -32 147 -10 13 -97 17 -97 5z"/>
<path d="M1163 2025 c-3 -9 -3 -18 -1 -21 3 -3 8 4 11 16 6 23 -1 27 -10 5z"/>
<path d="M1816 2014 c-12 -30 -6 -290 9 -380 26 -161 84 -315 143 -376 l26
-28 178 0 c112 0 178 4 178 10 0 6 -67 10 -180 10 l-180 0 -29 40 c-86 119
-132 314 -134 568 -1 94 -2 172 -3 172 -1 0 -5 -7 -8 -16z"/>
<path d="M2280 2020 l-105 -6 111 -2 112 -2 16 -77 c9 -43 19 -89 22 -102 3
-13 7 -21 9 -19 10 9 -38 218 -49 216 -6 -1 -58 -5 -116 -8z"/>
<path d="M1601 2000 c-18 -8 -21 -13 -12 -24 9 -11 19 -12 47 -3 25 8 47 8 75
0 33 -9 42 -8 46 4 3 7 2 17 -1 20 -11 12 -130 13 -155 3z"/>
<path d="M1247 1994 c-19 -19 1 -24 89 -24 72 0 95 3 92 13 -5 13 -168 23
-181 11z"/>
<path d="M556 1979 c-11 -35 -22 -119 -17 -124 6 -6 31 127 25 134 -2 2 -5 -2
-8 -10z"/>
<path d="M591 1974 c0 -11 3 -14 6 -6 3 7 2 16 -1 19 -3 4 -6 -2 -5 -13z"/>
<path d="M1482 1420 c0 -340 4 -550 9 -515 9 72 8 1046 -2 1072 -4 10 -7 -241
-7 -557z"/>
<path d="M575 1910 c-4 -23 -5 -43 -2 -46 2 -3 7 14 11 37 4 23 5 44 2 46 -2
2 -7 -14 -11 -37z"/>
<path d="M1242 1934 c-32 -14 8 -24 94 -24 72 0 95 3 92 13 -5 12 -159 21
-186 11z"/>
<path d="M1320 1870 c-24 -15 -4 -23 52 -21 57 2 63 4 53 20 -8 13 -84 14
-105 1z"/>
<path d="M2462 1865 c0 -11 4 -31 8 -45 6 -20 8 -21 8 -5 0 11 -4 31 -8 45 -6
20 -8 21 -8 5z"/>
<path d="M530 1794 c0 -51 -15 -88 -32 -78 -7 4 -8 3 -4 -4 4 -7 16 -12 27
-12 17 0 19 7 19 70 0 39 -2 70 -5 70 -3 0 -5 -21 -5 -46z"/>
<path d="M1142 1805 c0 -16 2 -22 5 -12 2 9 2 23 0 30 -3 6 -5 -1 -5 -18z"/>
<path d="M1753 1781 c0 -11 5 -18 9 -15 4 3 5 11 1 19 -7 21 -12 19 -10 -4z"/>
<path d="M2618 1753 c6 -2 18 -2 25 0 6 3 1 5 -13 5 -14 0 -19 -2 -12 -5z"/>
<path d="M2587 1743 c-4 -3 -7 -11 -7 -17 0 -6 5 -5 12 2 6 6 9 14 7 17 -3 3
-9 2 -12 -2z"/>
<path d="M2722 1698 c-13 -22 -20 -43 -18 -45 3 -3 14 14 25 38 27 55 21 61
-7 7z"/>
<path d="M2565 1700 c3 -5 8 -10 11 -10 2 0 4 5 4 10 0 6 -5 10 -11 10 -5 0
-7 -4 -4 -10z"/>
<path d="M1129 1670 c-3 -24 -8 -34 -19 -32 -11 3 -10 -2 5 -17 26 -29 36 -14
26 39 l-8 45 -4 -35z"/>
<path d="M1648 1663 c-16 -2 -28 -9 -28 -15 0 -5 7 -7 16 -4 9 3 50 6 92 7 52
0 71 3 57 9 -21 9 -89 10 -137 3z"/>
<path d="M2530 1654 c0 -8 5 -12 10 -9 6 3 10 10 10 16 0 5 -4 9 -10 9 -5 0
-10 -7 -10 -16z"/>
<path d="M2502 1254 c-105 -211 -189 -384 -184 -384 4 0 50 87 102 193 52 105
98 194 103 195 4 2 7 8 7 13 0 5 39 88 86 185 47 97 84 178 82 179 -2 2 -90
-169 -196 -381z"/>
<path d="M2510 1608 c0 -19 2 -20 10 -8 13 19 13 30 0 30 -5 0 -10 -10 -10
-22z"/>
<path d="M520 1616 c0 -7 40 -14 44 -7 3 4 -6 8 -20 9 -13 1 -24 0 -24 -2z"/>
<path d="M580 1609 c0 -3 32 -7 71 -8 46 -1 69 1 65 8 -7 11 -136 11 -136 0z"/>
<path d="M745 1610 c3 -5 10 -10 16 -10 5 0 9 5 9 10 0 6 -7 10 -16 10 -8 0
-12 -4 -9 -10z"/>
<path d="M1028 1613 c7 -3 16 -2 19 1 4 3 -2 6 -13 5 -11 0 -14 -3 -6 -6z"/>
<path d="M1663 1612 c-81 -6 -43 -17 56 -17 55 0 97 3 93 7 -9 8 -94 14 -149
10z"/>
<path d="M978 1603 c6 -2 18 -2 25 0 6 3 1 5 -13 5 -14 0 -19 -2 -12 -5z"/>
<path d="M2482 1561 c-16 -45 -15 -50 4 -23 8 12 14 30 12 40 -3 11 -8 6 -16
-17z"/>
<path d="M880 1570 l-285 -5 288 -3 c186 -1 287 2 287 8 0 6 -1 9 -2 8 -2 -2
-131 -5 -288 -8z"/>
<path d="M1630 1550 c-10 -6 9 -7 55 -3 39 3 72 7 74 9 10 9 -115 3 -129 -6z"/>
<path d="M594 1519 c-3 -5 60 -9 145 -9 94 0 151 4 151 10 0 13 -288 11 -296
-1z"/>
<path d="M1805 1500 c3 -5 8 -10 11 -10 2 0 4 5 4 10 0 6 -5 10 -11 10 -5 0
-7 -4 -4 -10z"/>
<path d="M1625 1461 c-6 -11 1 -256 11 -356 l5 -50 67 3 c37 2 92 -1 122 -8
52 -11 361 -108 368 -115 2 -2 -6 -22 -18 -45 -12 -23 -19 -45 -16 -48 3 -3 8
-3 10 -1 7 7 126 250 126 257 0 13 -47 -58 -68 -105 l-23 -48 -172 57 c-183
61 -288 83 -348 73 l-37 -6 -6 83 c-3 46 -8 131 -11 190 l-6 107 27 7 c26 7
125 0 174 -12 23 -5 24 -5 5 7 -27 17 -200 25 -210 10z"/>
<path d="M2434 1456 c-3 -9 -11 -13 -17 -9 -6 3 -7 1 -3 -5 9 -15 -68 -174
-79 -164 -5 4 -5 1 -1 -5 14 -24 24 -12 62 75 21 48 42 93 47 100 6 7 7 15 4
19 -4 3 -9 -2 -13 -11z"/>
<path d="M778 1453 c106 -2 277 -2 380 0 103 1 16 2 -193 2 -209 0 -293 -1
-187 -2z"/>
<path d="M1835 1401 c-3 -5 -1 -12 5 -16 6 -4 7 -11 4 -17 -4 -6 -2 -8 4 -5 5
4 8 16 5 27 -6 22 -9 24 -18 11z"/>
<path d="M1862 1330 c0 -14 2 -19 5 -12 2 6 2 18 0 25 -3 6 -5 1 -5 -13z"/>
<path d="M881 1311 c-25 -26 -35 -30 -96 -32 -52 -2 -70 1 -74 12 -6 19 -32
38 -53 39 -20 0 -58 -46 -58 -71 0 -23 27 -49 51 -49 11 0 30 11 43 24 18 20
36 26 98 32 68 6 76 5 82 -12 6 -15 -9 -35 -76 -96 -45 -42 -80 -79 -77 -82 3
-3 43 29 89 72 54 50 90 76 102 74 25 -4 65 22 73 48 4 13 0 31 -9 45 -23 34
-61 32 -95 -4z m-186 -22 c10 -31 -13 -61 -43 -57 -36 4 -43 49 -11 71 25 18
46 13 54 -14z m273 3 c6 -43 -45 -71 -76 -40 -30 30 -4 71 43 66 23 -2 31 -9
33 -26z"/>
<path d="M2790 1320 c-6 -11 -7 -20 -2 -20 6 0 12 9 15 20 3 11 3 20 1 20 -2
0 -8 -9 -14 -20z"/>
<path d="M1064 1299 c-3 -5 4 -9 16 -9 17 0 20 -4 16 -20 -3 -11 -9 -29 -12
-40 -3 -11 -1 -20 5 -20 6 0 14 18 17 40 4 24 12 40 20 40 8 0 14 4 14 9 0 5
-16 9 -35 9 -19 0 -38 -4 -41 -9z"/>
<path d="M1168 1297 c-9 -6 -19 -27 -23 -44 -5 -26 -3 -33 9 -33 12 0 15 6 10
24 -3 15 1 29 11 40 21 20 15 31 -7 13z"/>
<path d="M1205 1300 c-3 -5 -2 -10 3 -10 11 0 4 -39 -11 -57 -7 -9 -5 -13 6
-13 13 0 27 39 27 76 0 16 -16 19 -25 4z"/>
<path d="M1260 1280 c0 -5 5 -10 10 -10 6 0 10 5 10 10 0 6 -4 10 -10 10 -5 0
-10 -4 -10 -10z"/>
<path d="M2766 1275 c-9 -26 -7 -32 5 -12 6 10 9 21 6 23 -2 3 -7 -2 -11 -11z"/>
<path d="M1247 1238 c-4 -12 -4 -24 -1 -27 6 -7 24 20 24 37 0 21 -17 13 -23
-10z"/>
<path d="M1900 1225 c0 -8 4 -15 10 -15 5 0 7 7 4 15 -4 8 -8 15 -10 15 -2 0
-4 -7 -4 -15z"/>
<path d="M1910 1188 c0 -4 7 -8 15 -8 8 0 15 4 15 8 0 5 -7 9 -15 9 -8 0 -15
-4 -15 -9z"/>
<path d="M1990 1160 c0 -5 5 -10 11 -10 5 0 7 5 4 10 -3 6 -8 10 -11 10 -2 0
-4 -4 -4 -10z"/>
<path d="M2047 1149 c7 -7 15 -10 18 -7 3 3 -2 9 -12 12 -14 6 -15 5 -6 -5z"/>
<path d="M2113 1133 c9 -2 23 -2 30 0 6 3 -1 5 -18 5 -16 0 -22 -2 -12 -5z"/>
<path d="M1150 1120 c0 -5 5 -10 10 -10 6 0 10 5 10 10 0 6 -4 10 -10 10 -5 0
-10 -4 -10 -10z"/>
<path d="M1256 1118 c-12 -7 -14 -13 -8 -17 8 -5 7 -15 -3 -35 -17 -33 -18
-36 -7 -36 11 0 45 75 41 89 -3 6 -10 6 -23 -1z"/>
<path d="M2155 1110 c-3 -6 1 -7 9 -4 18 7 21 14 7 14 -6 0 -13 -4 -16 -10z"/>
<path d="M2190 1106 c0 -2 15 -6 34 -8 19 -2 32 0 30 4 -5 8 -64 12 -64 4z"/>
<path d="M638 1084 c-31 -16 -46 -58 -31 -83 16 -26 62 -26 89 0 28 27 31 50
7 71 -30 25 -37 27 -65 12z m50 -16 c17 -17 15 -38 -5 -60 -20 -23 -50 -23
-61 0 -11 21 -5 43 16 60 20 15 35 15 50 0z"/>
<path d="M930 1058 l1 -43 24 28 c26 29 33 57 15 57 -5 0 -10 -9 -10 -19 0
-11 -5 -23 -11 -27 -7 -4 -9 0 -5 14 4 11 2 23 -4 27 -6 4 -10 -10 -10 -37z"/>
<path d="M990 1073 c-21 -27 -22 -49 -2 -47 7 1 23 2 35 3 15 0 28 11 35 26 6
14 18 25 27 25 8 0 15 5 15 11 0 6 -7 8 -16 5 -9 -3 -19 -6 -24 -6 -4 0 -11
-10 -15 -22 -8 -22 -8 -22 -12 5 -5 34 -16 34 -43 0z m30 -2 c0 -5 -7 -14 -15
-21 -12 -10 -15 -10 -15 2 0 8 3 18 7 21 9 10 23 9 23 -2z"/>
<path d="M1141 1076 c-6 -16 -10 -34 -8 -40 3 -6 10 2 16 18 6 16 10 34 8 40
-3 6 -10 -2 -16 -18z"/>
<path d="M870 1080 c0 -5 5 -10 10 -10 6 0 10 5 10 10 0 6 -4 10 -10 10 -5 0
-10 -4 -10 -10z"/>
<path d="M1188 1083 c7 -3 16 -2 19 1 4 3 -2 6 -13 5 -11 0 -14 -3 -6 -6z"/>
<path d="M1170 1060 c0 -5 7 -10 15 -10 8 0 15 5 15 10 0 6 -7 10 -15 10 -8 0
-15 -4 -15 -10z"/>
<path d="M865 1051 c-3 -5 -1 -12 5 -16 5 -3 10 1 10 9 0 18 -6 21 -15 7z"/>
<path d="M908 983 c-16 -2 -28 -8 -28 -13 0 -8 37 -5 135 10 l50 8 -65 -1
c-36 0 -77 -2 -92 -4z"/>
<path d="M2567 897 c-26 -52 -47 -101 -47 -111 0 -9 -5 -14 -10 -11 -6 4 -10
3 -9 -2 1 -4 -10 -34 -25 -67 -15 -32 -25 -63 -23 -70 4 -11 177 325 177 343
0 30 -21 2 -63 -82z"/>
<path d="M1641 934 c-64 -17 -102 -43 -130 -88 -22 -35 -29 -96 -11 -96 6 0 8
10 4 24 -8 32 62 91 133 112 47 14 66 14 190 -1 159 -19 292 -48 303 -65 6 -9
9 -9 15 0 4 6 5 13 3 15 -4 4 -207 65 -303 91 -77 20 -145 23 -204 8z m184
-24 c17 -4 -10 -6 -60 -3 -49 3 -92 7 -94 9 -8 7 124 2 154 -6z"/>
<path d="M1688 873 c7 -3 16 -2 19 1 4 3 -2 6 -13 5 -11 0 -14 -3 -6 -6z"/>
<path d="M673 863 c120 -2 314 -2 430 0 117 1 19 2 -218 2 -236 0 -332 -1
-212 -2z"/>
<path d="M1605 855 c-39 -18 -31 -18 25 -1 25 8 36 15 25 15 -11 0 -33 -6 -50
-14z"/>
<path d="M1793 863 c9 -2 23 -2 30 0 6 3 -1 5 -18 5 -16 0 -22 -2 -12 -5z"/>
<path d="M1863 853 c9 -2 25 -2 35 0 9 3 1 5 -18 5 -19 0 -27 -2 -17 -5z"/>
<path d="M2296 844 c-5 -14 -4 -15 9 -4 17 14 19 20 6 20 -5 0 -12 -7 -15 -16z"/>
<path d="M1948 843 c7 -3 16 -2 19 1 4 3 -2 6 -13 5 -11 0 -14 -3 -6 -6z"/>
<path d="M300 790 c0 -6 208 -10 563 -12 616 -3 598 -1 616 -63 5 -16 10 -22
10 -13 2 34 -22 67 -61 82 -33 14 -114 16 -583 16 -345 0 -545 -4 -545 -10z"/>
<path d="M2132 778 c-1 -15 -6 -29 -10 -32 -4 -2 -43 2 -86 10 -43 8 -83 13
-89 11 -7 -2 20 -9 58 -16 134 -22 124 -17 118 -64 -4 -32 -3 -39 6 -31 8 7
11 36 8 80 -1 38 -4 57 -5 42z"/>
<path d="M2555 790 c3 -5 31 -10 61 -10 30 0 54 5 54 10 0 6 -27 10 -61 10
-37 0 -58 -4 -54 -10z"/>
<path d="M1731 786 c2 -2 49 -5 104 -8 55 -3 87 -2 70 2 -31 8 -182 13 -174 6z"/>
<path d="M1628 749 c-21 -11 -38 -22 -38 -24 0 -3 17 3 38 13 20 11 44 22 52
25 13 5 13 5 0 6 -8 0 -32 -9 -52 -20z"/>
<path d="M2257 751 c-4 -17 -3 -21 5 -13 5 5 8 16 6 23 -3 8 -7 3 -11 -10z"/>
<path d="M372 723 c2 -5 10 -25 17 -45 12 -30 19 -36 35 -33 100 23 267 55
339 65 48 7 87 14 87 16 0 2 -108 4 -241 4 -132 0 -239 -3 -237 -7z m159 -25
c0 -10 2 -10 6 0 2 6 16 12 29 12 15 0 23 -4 19 -10 -4 -6 -11 -8 -16 -5 -5 4
-15 3 -21 -2 -7 -4 -20 -8 -28 -10 -8 -1 -34 -4 -57 -8 -35 -5 -43 -3 -53 14
-10 20 -8 21 55 21 45 0 65 -4 66 -12z"/>
<path d="M933 723 c43 -2 110 -2 150 0 40 1 5 3 -78 3 -82 0 -115 -2 -72 -3z"/>
<path d="M1560 705 c-11 -13 -10 -14 4 -9 9 3 16 10 16 15 0 13 -6 11 -20 -6z"/>
<path d="M2239 713 c0 -5 -2 -16 -4 -26 -2 -11 -1 -16 3 -13 8 8 14 46 7 46
-3 0 -5 -3 -6 -7z"/>
<path d="M734 668 l-19 -23 25 20 c14 11 27 21 29 22 2 2 0 3 -6 3 -5 0 -18
-10 -29 -22z"/>
<path d="M2316 600 c-37 -44 -62 -80 -56 -80 6 0 17 8 24 18 78 95 107 134
103 138 -2 3 -34 -31 -71 -76z"/>
<path d="M1340 620 c0 -5 5 -10 11 -10 5 0 7 5 4 10 -3 6 -8 10 -11 10 -2 0
-4 -4 -4 -10z"/>
<path d="M2715 480 l-170 -6 178 -2 c117 -1 176 1 172 8 -3 6 -7 9 -8 8 -1 -1
-78 -5 -172 -8z"/>
<path d="M1773 473 c9 -2 25 -2 35 0 9 3 1 5 -18 5 -19 0 -27 -2 -17 -5z"/>
<path d="M1893 473 c37 -2 97 -2 135 0 37 2 6 3 -68 3 -74 0 -105 -1 -67 -3z"/>
<path d="M2458 473 c12 -2 30 -2 40 0 9 3 -1 5 -23 4 -22 0 -30 -2 -17 -4z"/>
<path d="M1344 385 c11 -8 26 -15 33 -15 22 0 14 8 -19 19 -30 10 -31 9 -14
-4z"/>
</g>
</svg>
